<?xml version="1.0" encoding="UTF-8" standalone="no"?><!DOCTYPE svg PUBLIC "-//W3C//DTD SVG 1.1//EN" "http://www.w3.org/Graphics/SVG/1.1/DTD/svg11.dtd"><svg width="100%" height="100%" viewBox="0 0 35 24" version="1.1" xmlns="http://www.w3.org/2000/svg" xmlns:xlink="http://www.w3.org/1999/xlink" xml:space="preserve" xmlns:serif="http://www.serif.com/" style="fill-rule:evenodd;clip-rule:evenodd;stroke-linejoin:round;stroke-miterlimit:1.41421;"><rect x="0" y="22.222" width="15.117" height="0.576" style="fill:#9c2e1f;"/><path d="M0,22.222l0,-21.299l4.336,0l0,17.681l10.781,0l0,3.618l-15.117,0Z" style="fill:#b6413b;fill-rule:nonzero;"/><path d="M17.123,14.966c0.297,2.347 1.161,4.138 2.594,5.373c1.455,1.255 3.54,1.883 6.255,1.883c1.865,0 3.423,-0.262 4.673,-0.784c1.25,-0.522 2.216,-1.321 2.9,-2.395c0.602,-0.946 0.939,-1.953 1.011,-3.02c0.009,0.169 0.014,0.343 0.014,0.52c0,1.23 -0.341,2.383 -1.025,3.457c-0.684,1.074 -1.65,1.872 -2.9,2.395c-1.25,0.522 -2.808,0.784 -4.673,0.784c-2.715,0 -4.8,-0.628 -6.255,-1.883c-1.455,-1.255 -2.677,-4.174 -2.608,-6.442l0.014,0.112Zm0.782,-8.483c0.116,1.487 0.769,2.764 1.958,3.829c0.938,0.84 2.569,1.548 4.893,2.125c1.807,0.449 2.964,0.761 3.472,0.937c0.742,0.264 1.262,0.574 1.56,0.93c0.297,0.357 0.446,0.789 0.446,1.297c0,0.166 -0.015,0.328 -0.047,0.486c-0.065,-0.31 -0.198,-0.585 -0.399,-0.826c-0.298,-0.356 -0.818,-0.666 -1.56,-0.93c-0.508,-0.176 -1.665,-0.488 -3.472,-0.938c-2.324,-0.576 -3.955,-1.284 -4.893,-2.124c-1.318,-1.181 -1.977,-2.622 -1.977,-4.321c0,-0.156 0.006,-0.311 0.019,-0.465Zm4.193,-0.316c-0.044,-0.149 -0.067,-0.305 -0.067,-0.469c0,-0.556 0.23,-1.001 0.689,-1.333c0.713,-0.517 1.699,-0.776 2.959,-0.776c1.22,0 2.136,0.242 2.746,0.725c0.611,0.483 1.009,1.277 1.194,2.38l4.333,-0.19c0.017,0.309 0.016,0.628 0.003,0.957l-4.336,0.19c-0.185,-1.103 -0.583,-1.897 -1.194,-2.38c-0.61,-0.484 -1.526,-0.725 -2.746,-0.725c-1.26,0 -2.246,0.259 -2.959,0.776c-0.316,0.228 -0.523,0.51 -0.622,0.845Z" style="fill:#005f87;"/><path d="M17.109,14.854l4.219,-0.411c0.254,1.416 0.769,2.456 1.546,3.12c0.776,0.665 1.823,0.997 3.142,0.997c1.396,0 2.448,-0.296 3.156,-0.887c0.708,-0.59 1.062,-1.281 1.062,-2.072c0,-0.508 -0.149,-0.94 -0.446,-1.297c-0.298,-0.356 -0.818,-0.666 -1.56,-0.93c-0.508,-0.176 -1.665,-0.488 -3.472,-0.937c-2.324,-0.577 -3.955,-1.285 -4.893,-2.125c-1.318,-1.181 -1.977,-2.622 -1.977,-4.321c0,-1.094 0.31,-2.116 0.93,-3.069c0.62,-0.952 1.514,-1.677 2.681,-2.175c1.167,-0.498 2.575,-0.747 4.226,-0.747c2.695,0 4.724,0.591 6.086,1.772c1.362,1.182 2.078,2.759 2.146,4.732l-4.336,0.19c-0.185,-1.103 -0.583,-1.897 -1.194,-2.38c-0.61,-0.483 -1.526,-0.725 -2.746,-0.725c-1.26,0 -2.246,0.259 -2.959,0.776c-0.459,0.332 -0.689,0.777 -0.689,1.333c0,0.508 0.215,0.943 0.645,1.304c0.547,0.459 1.875,0.937 3.984,1.435c2.11,0.499 3.67,1.014 4.68,1.546c1.011,0.532 1.802,1.26 2.373,2.183c0.572,0.922 0.857,2.063 0.857,3.42c0,1.23 -0.341,2.383 -1.025,3.457c-0.684,1.074 -1.65,1.873 -2.9,2.395c-1.25,0.522 -2.808,0.784 -4.673,0.784c-2.715,0 -4.8,-0.628 -6.255,-1.883c-1.455,-1.255 -2.324,-3.083 -2.608,-5.485Z" style="fill:#007194;fill-rule:nonzero;"/></svg>